<svg xmlns="http://www.w3.org/2000/svg" width="186" height="74" viewBox="0 0 186 74">
  <path fill="#B2B2B2" fill-rule="evenodd" d="M78.5103166 73.7699C73.6293166 67.0769 67.8043166 62.8309 61.1973166 61.1499L61.6903166 59.2119C68.7603166 61.0099 74.9633166 65.5119 80.1263166 72.5919L78.5103166 73.7699zM87.8345166 69.1898C85.8465166 58.2398 81.8685166 48.6218 76.0105166 40.6008L77.6265166 39.4208C83.6635166 47.6878 87.7595166 57.5838 89.8025166 68.8328L87.8345166 69.1898zM98.8018166 69.1928L96.8348166 68.8298C98.2058166 61.4068 100.958817 54.8748 105.015817 49.4148L106.620817 50.6078C102.747817 55.8198 100.116817 62.0728 98.8018166 69.1928M109.177817 73.5228L107.458817 72.4998C115.981817 58.1818 126.570817 48.2868 138.930817 43.0888L139.705817 44.9318C127.747817 49.9608 117.477817 59.5808 109.177817 73.5228M102.055617 17.098L95.4126166 37.546C94.9546166 38.955 95.7276166 40.473 97.1376166 40.931L97.1376166 40.931 120.141617 48.406C121.550617 48.864 123.069617 48.09 123.527617 46.681L123.527617 46.681 130.171617 26.233C130.629617 24.822 129.855617 23.305 128.446617 22.847L128.446617 22.847 105.442617 15.372C105.166617 15.283 104.887617 15.24 104.612617 15.24L104.612617 15.24C103.479617 15.24 102.424617 15.962 102.055617 17.098L102.055617 17.098zM97.9676166 38.376L104.612617 17.928 127.615617 25.402 120.972617 45.851 97.9676166 38.376zM105.921617 22.593L108.478617 23.423 109.308617 20.867 106.752617 20.036 105.921617 22.593zM111.033617 24.253L113.589617 25.084 114.420617 22.527 111.864617 21.697 111.033617 24.253zM116.145617 25.914L118.701617 26.745 119.532617 24.189 116.976617 23.358 116.145617 25.914zM121.257617 27.575L123.813617 28.406 124.644617 25.85 122.088617 25.019 121.257617 27.575zM108.989617 34.892L117.903617 33.551 111.481617 27.224 108.989617 34.892zM100.939617 37.928L103.495617 38.759 104.325617 36.203 101.769617 35.372 100.939617 37.928zM106.050617 39.589L108.607617 40.42 109.437617 37.863 106.882617 37.033 106.050617 39.589zM111.163617 41.25L113.718617 42.081 114.550617 39.525 111.993617 38.694 111.163617 41.25zM116.275617 42.911L118.831617 43.741 119.661617 41.185 117.105617 40.355 116.275617 42.911zM78.5426166 8.335L78.5206166 8.355C78.1786166 8.651 73.9576166 12.202 68.0996166 13.771L68.0996166 13.771C62.2406166 15.341 56.8106166 14.376 56.3656166 14.29L56.3656166 14.29 56.3376166 14.285C55.8826166 14.194 55.4116166 14.344 55.0916166 14.683L55.0916166 14.683C54.7736166 15.021 54.6516166 15.501 54.7726166 15.951L54.7726166 15.951 58.2496166 28.931C60.2176166 36.271 73.3736166 37.143 73.9316166 37.178L73.9316166 37.178C74.0776166 37.186 74.2216166 37.172 74.3596166 37.134L74.3596166 37.134C74.4986166 37.097 74.6316166 37.037 74.7526166 36.957L74.7526166 36.957C75.2186166 36.648 86.1756166 29.315 84.2096166 21.975L84.2096166 21.975 80.7316166 8.996C80.6116166 8.545 80.2656166 8.191 79.8206166 8.057L79.8206166 8.057C79.6926166 8.018 79.5616166 8 79.4326166 8L79.4326166 8C79.1086166 8 78.7906166 8.117 78.5426166 8.335L78.5426166 8.335zM68.7946166 16.367C73.2096166 15.184 76.7176166 13.03 78.6586166 11.644L78.6586166 11.644 81.6126166 22.67C82.7796166 27.021 76.5746166 32.421 73.6436166 34.46L73.6436166 34.46C70.0846166 34.16 62.0116166 32.586 60.8456166 28.235L60.8456166 28.235 57.8916166 17.209C58.7286166 17.29 59.7816166 17.356 60.9886166 17.356L60.9886166 17.356C63.2046166 17.356 65.9376166 17.133 68.7946166 16.367L68.7946166 16.367zM74.3346166 16.274C71.4776166 17.039 71.0646166 19.645 71.4846166 21.212L71.4846166 21.212 74.0846166 20.531C73.9386166 19.927 73.9856166 19.15 75.0306166 18.87L75.0306166 18.87C76.0766166 18.59 76.5036166 19.24 76.6756166 19.82L76.6756166 19.82 79.2716166 19.124C78.9146166 17.792 77.6586166 16.109 75.5306166 16.109L75.5306166 16.109C75.1586166 16.109 74.7596166 16.16 74.3346166 16.274L74.3346166 16.274zM63.9516166 19.057C61.0946166 19.822 60.6816166 22.428 61.1006166 23.993L61.1006166 23.993 63.7016166 23.314C63.5556166 22.71 63.6016166 21.932 64.6456166 21.652L64.6456166 21.652C65.6926166 21.372 66.1206166 22.022 66.2926166 22.602L66.2926166 22.602 68.8876166 21.907C68.5306166 20.575 67.2756166 18.891 65.1476166 18.891L65.1476166 18.891C64.7756166 18.891 64.3766166 18.943 63.9516166 19.057L63.9516166 19.057zM74.7756166 23.111C75.3506166 25.259 74.0716166 27.474 71.9256166 28.049L71.9256166 28.049C69.7786166 28.624 67.5626166 27.345 66.9876166 25.199L66.9876166 25.199 64.3926166 25.894C65.3506166 29.473 69.0426166 31.604 72.6206166 30.645L72.6206166 30.645C76.1996166 29.686 78.3306166 25.994 77.3716166 22.416L77.3716166 22.416 74.7756166 23.111zM45.2906166 33.112L24.3436166 45.206C23.0596166 45.947 22.6186166 47.593 23.3596166 48.878L23.3596166 48.878 34.1096166 67.497C34.8506166 68.78 36.4966166 69.221 37.7816166 68.48L37.7816166 68.48 58.7276166 56.386C60.0126166 55.645 60.4526166 53.999 59.7116166 52.715L59.7116166 52.715 48.9616166 34.096C48.4646166 33.235 47.5596166 32.752 46.6306166 32.752L46.6306166 32.752C46.1746166 32.752 45.7136166 32.868 45.2906166 33.112L45.2906166 33.112zM25.6866166 47.534L46.6346166 35.44 50.6656166 42.422 50.6636166 42.423 57.3806166 54.061 36.4376166 66.153 25.6866166 47.534zM41.7146166 53.795L38.0446166 52.812 37.2406166 59.483 51.2056166 51.42 42.5186166 47.125 41.7146166 53.795zM33.5216166 47.665C32.2356166 48.408 31.7946166 50.049 32.5376166 51.336L32.5376166 51.336C33.2806166 52.622 34.9226166 53.062 36.2086166 52.32L36.2086166 52.32C37.4936166 51.578 37.9346166 49.935 37.1926166 48.649L37.1926166 48.649C36.6936166 47.786 35.7916166 47.305 34.8636166 47.305L34.8636166 47.305C34.4076166 47.305 33.9446166 47.421 33.5216166 47.665L33.5216166 47.665zM145.333617 25.767L141.879617 29.885C140.926617 31.02 141.074617 32.718 142.210617 33.671L142.210617 33.671 144.762617 35.812 144.148617 42.804C144.148617 43.675 144.513617 44.375 145.097617 44.863L145.097617 44.863C145.367617 45.091 145.677617 45.261 146.014617 45.368L146.014617 45.368C147.055617 45.698 148.182617 45.368 148.883617 44.532L148.883617 44.532 160.976617 30.122C161.678617 29.284 161.805617 28.12 161.299617 27.152L161.299617 27.152C160.802617 26.199 159.750617 25.622 158.683617 25.717L158.683617 25.717 151.672617 27.577 149.120617 25.436C148.617617 25.014 148.004617 24.808 147.394617 24.808L147.394617 24.808C146.626617 24.808 145.864617 25.135 145.333617 25.767L145.333617 25.767zM147.562617 34.653L143.938617 31.612 147.393617 27.494 151.017617 30.536 158.894617 28.421 146.846617 42.782 147.562617 34.653zM161.307617 33.908C164.145617 36.289 164.516617 40.535 162.135617 43.373L162.135617 43.373C159.753617 46.212 155.508617 46.583 152.669617 44.202L152.669617 44.202 150.942617 46.26C154.915617 49.594 160.860617 49.075 164.194617 45.101L164.194617 45.101C167.527617 41.128 167.008617 35.183 163.034617 31.849L163.034617 31.849 161.307617 33.908zM157.852617 38.025C158.419617 38.501 158.494617 39.351 158.018617 39.918L158.018617 39.918C157.541617 40.487 156.692617 40.56 156.124617 40.084L156.124617 40.084 154.397617 42.143C156.099617 43.571 158.648617 43.349 160.077617 41.646L160.077617 41.646C161.505617 39.943 161.282617 37.395 159.579617 35.967L159.579617 35.967 157.852617 38.025z"/>
</svg>
